<svg id="78ce589e-2de3-4de3-944f-735b76a8ac9b" data-name="Layer 1" xmlns="http://www.w3.org/2000/svg" viewBox="0 0 120 96"><title>sb-logo-mobile</title><path id="a64a4848-926e-4b8f-a7f5-ad134e8b8ab4" data-name="Fill-26" d="M110.6,58c5.18,0,9.4-4.5,9.4-10s-4.22-10-9.4-10a9.06,9.06,0,0,0-6.46,2.55l-.61.61A30.87,30.87,0,0,1,85.32,47a30.61,30.61,0,0,1-19.11-6.56A9.13,9.13,0,0,0,60.05,38h-.12a9,9,0,0,0-6.44,2.55l-.61.61A30.86,30.86,0,0,1,34.68,47a30.59,30.59,0,0,1-19.11-6.56A9.14,9.14,0,0,0,9.4,38C4.22,38,0,42.49,0,48S4.22,58,9.4,58a8.92,8.92,0,0,0,5.79-2.14l.92-.76v0A30.71,30.71,0,0,1,34.68,49,30.5,30.5,0,0,1,53.91,55.7,9.16,9.16,0,0,0,60,58h.12a8.91,8.91,0,0,0,5.77-2.14l.91-.76,0,0a31.15,31.15,0,0,1,37.79.54,9.14,9.14,0,0,0,6,2.34M85.27,19a9.13,9.13,0,0,0-6.51,2.42l-1.18,1.19A30.94,30.94,0,0,1,60,28a30.62,30.62,0,0,1-19.11-6.57A9.13,9.13,0,0,0,34.72,19c-5.18,0-9.4,4.49-9.4,10s4.22,10,9.4,10a9,9,0,0,0,5.8-2.14l.91-.76,0,0a31.15,31.15,0,0,1,37.79.54,9.13,9.13,0,0,0,6,2.34c5.19,0,9.41-4.5,9.41-10s-4.22-10-9.41-10M34.72,77.06a9,9,0,0,0,5.8-2.14l.91-.76,0,0a31.11,31.11,0,0,1,37.79.54,9.13,9.13,0,0,0,6,2.34c5.19,0,9.41-4.5,9.41-10s-4.22-10-9.41-10a9.05,9.05,0,0,0-6.45,2.55l-.62.61a31.13,31.13,0,0,1-37.31-.69A9.14,9.14,0,0,0,34.72,57c-5.18,0-9.4,4.5-9.4,10s4.22,10,9.4,10M60,96c5.18,0,9.4-4.5,9.4-10S65.18,76,60,76s-9.4,4.49-9.4,10S54.82,96,60,96m9.4-86c0,5.53-4.22,10-9.4,10s-9.4-4.49-9.4-10S54.82,0,60,0s9.4,4.5,9.4,10" fill="#e8892d"/></svg>