<svg id="e744b856-729c-4628-a0ad-5903877154e0" data-name="Layer 1" xmlns="http://www.w3.org/2000/svg" viewBox="0 0 527.7 95.5"><title>sb-logo-invert</title><path id="5a485cf1-cbf9-44ba-8667-72a1b75052e1" data-name="Fill-26" d="M109.8,58.2c5.1,0,9.3-4.5,9.3-10s-4.2-10-9.3-10a9,9,0,0,0-6.4,2.5l-.6.6a30.78,30.78,0,0,1-36.9-.7,8.88,8.88,0,0,0-6.1-2.4h-.1a9.17,9.17,0,0,0-6.4,2.5l-.6.6a30.22,30.22,0,0,1-18,5.8,30.07,30.07,0,0,1-18.9-6.5,8.88,8.88,0,0,0-6.1-2.4c-5.1,0-9.3,4.5-9.3,10s4.2,10,9.3,10a8.55,8.55,0,0,0,5.7-2.1l.9-.8h0a30.35,30.35,0,0,1,18.4-6.1,30.93,30.93,0,0,1,19.1,6.6,9,9,0,0,0,6,2.3h.1A8.55,8.55,0,0,0,65.6,56l.9-.8h0a30.35,30.35,0,0,1,18.4-6.1A30.93,30.93,0,0,1,104,55.7a7.73,7.73,0,0,0,5.8,2.5M84.7,19.3a9.33,9.33,0,0,0-6.5,2.4L77,22.9a30.37,30.37,0,0,1-17.4,5.4,30.07,30.07,0,0,1-18.9-6.5,8.88,8.88,0,0,0-6.1-2.4c-5.1,0-9.3,4.5-9.3,10s4.2,10,9.3,10a8.55,8.55,0,0,0,5.7-2.1l.9-.8h0a30.35,30.35,0,0,1,18.4-6.1A30.93,30.93,0,0,1,78.7,37a9,9,0,0,0,6,2.3c5.1,0,9.3-4.5,9.3-10s-4.1-10-9.3-10M34.6,77.1A8.55,8.55,0,0,0,40.3,75l.9-.8h0a30.35,30.35,0,0,1,18.4-6.1,30.93,30.93,0,0,1,19.1,6.6,9,9,0,0,0,6,2.3c5.1,0,9.3-4.5,9.3-10s-4.2-10-9.3-10a9,9,0,0,0-6.4,2.5l-.6.6a30.78,30.78,0,0,1-36.9-.7A8.88,8.88,0,0,0,34.7,57c-5.1,0-9.3,4.5-9.3,10s4.1,10.1,9.2,10.1M59.7,95.9c5.1,0,9.3-4.5,9.3-10s-4.2-10-9.3-10-9.3,4.5-9.3,10,4.1,10,9.3,10M69,10.4c0,5.5-4.2,10-9.3,10s-9.3-4.5-9.3-10S54.6.4,59.7.4a9.77,9.77,0,0,1,9.3,10" transform="translate(-0.4 -0.4)" fill="#e8892d"/><path id="17e435dc-f4af-4a76-9b2b-b0da3199f64d" data-name="Sweetbridge" d="M153.7,59.5l-5.2,5.9a29.51,29.51,0,0,0,19.8,7.1c11.9-.1,18-5.2,18.2-15.1a14.82,14.82,0,0,0-3.5-9.7c-2.3-2.8-5.9-4.6-10.8-5.2-2.5-.3-4.4-.6-5.8-.8-2.6-.5-4.4-1.3-5.6-2.6a5.59,5.59,0,0,1-1.7-4.1,6.46,6.46,0,0,1,2.6-5.6,9.82,9.82,0,0,1,6.1-1.8,23.66,23.66,0,0,1,12.9,4l4.4-6.5a30,30,0,0,0-16.8-5.4c-5.4,0-9.5,1.4-12.4,4.2a14.25,14.25,0,0,0-4.5,11,13.63,13.63,0,0,0,3.6,9.6c2.3,2.6,5.7,4.2,10.2,4.9,2.5.4,4.8.7,6.9,1,4.6.8,6.8,3.1,6.8,7-.1,4.7-3.5,7.1-10.3,7.2A22.45,22.45,0,0,1,153.7,59.5Zm69.8,12.6h6.6l11.8-36.9H234l-7,25.9h-.1l-8.4-25.9H213L204.6,61h-.1l-7.1-25.9h-7.9L201.3,72h6.5l7.7-25.9h.1Zm52-15.6h-23a8.81,8.81,0,0,0,2.6,6.8,8.45,8.45,0,0,0,6.3,2.3,11.19,11.19,0,0,0,8.1-3.6l5.4,4.6a17.75,17.75,0,0,1-13.3,6,18.84,18.84,0,0,1-5.7-.9,16,16,0,0,1-2.7-1.2,12.32,12.32,0,0,1-6.4-7.5,22.51,22.51,0,0,1-1.6-9.3,26,26,0,0,1,1.4-9.1,14.39,14.39,0,0,1,3.6-5.8,13.55,13.55,0,0,1,4.9-3.1,17.07,17.07,0,0,1,5.3-1,14.87,14.87,0,0,1,10.7,4.2c3,2.8,4.5,6.6,4.5,11.5v6.1Zm-23.1-6.2H268a9.6,9.6,0,0,0-2.3-6.5,8.25,8.25,0,0,0-11,0A11,11,0,0,0,252.4,50.3Zm59.5,6.2h-23a8.81,8.81,0,0,0,2.6,6.8,8.45,8.45,0,0,0,6.3,2.3,11.19,11.19,0,0,0,8.1-3.6l5.4,4.6a17.75,17.75,0,0,1-13.3,6,18.84,18.84,0,0,1-5.7-.9,16,16,0,0,1-2.7-1.2,12.32,12.32,0,0,1-6.4-7.5,22.51,22.51,0,0,1-1.6-9.3,26,26,0,0,1,1.4-9.1,14.39,14.39,0,0,1,3.6-5.8,13.55,13.55,0,0,1,4.9-3.1,17.07,17.07,0,0,1,5.3-1,14.87,14.87,0,0,1,10.7,4.2c3,2.8,4.5,6.6,4.5,11.5v6.1Zm-23-6.2h15.6a9.6,9.6,0,0,0-2.3-6.5,8.25,8.25,0,0,0-11,0A9.8,9.8,0,0,0,288.9,50.3Zm31.2-15.1h-3.7v5.7h3.7V63a8.73,8.73,0,0,0,2.6,6.7,8.92,8.92,0,0,0,6.4,2.4H333v-7h-2.8c-1.8,0-2.7-.9-2.6-2.7V40.8H333V35.1h-5.4V23.9h-7.4V35.2ZM340,72.1V20.2h7.4V39.1a19,19,0,0,1,4.4-3.2,10.67,10.67,0,0,1,5.1-1.2q6.75.15,9.9,4.8a10.31,10.31,0,0,1,2.1,4.6,54.06,54.06,0,0,1,.5,9.5,65.73,65.73,0,0,1-.5,9.4,9.76,9.76,0,0,1-2.1,4.7,11,11,0,0,1-4,3.4,13.17,13.17,0,0,1-5.9,1.4,12.35,12.35,0,0,1-9.5-4.3v3.9Zm14.7-30a6.78,6.78,0,0,0-4,1,5.77,5.77,0,0,0-2.2,2.7,13.57,13.57,0,0,0-.9,3.6c-.1,1.3-.2,2.7-.2,4.1s.1,2.6.2,4a10.59,10.59,0,0,0,.9,3.7,6.43,6.43,0,0,0,2.2,2.7,6.78,6.78,0,0,0,4,1.1,7.47,7.47,0,0,0,4.2-1,6.82,6.82,0,0,0,2.2-2.6,14.09,14.09,0,0,0,1-3.8c0-1.3.1-2.7.1-4.1s0-2.9-.1-4.3a13.64,13.64,0,0,0-1-3.6,5.1,5.1,0,0,0-2.2-2.6A8.45,8.45,0,0,0,354.7,42.1Zm23.1,30h7.4V49.9c0-2.7.8-4.7,2.3-5.9a7.33,7.33,0,0,1,4.9-1.9,7.59,7.59,0,0,1,4.9,1.9l5.4-6.4a11.51,11.51,0,0,0-7.8-2.8,11.87,11.87,0,0,0-9.6,4.4h-.1V35.3h-7.4V72.1Zm28.6,0h7.4V35.2h-7.4Zm0-44.4h7.4V20.3h-7.4Zm39.4,40.5a12.41,12.41,0,0,1-9.6,4.3,11.46,11.46,0,0,1-5.7-1.4,14,14,0,0,1-4.2-3.4,9.22,9.22,0,0,1-2-4.7,51,51,0,0,1-.6-9.4,52.3,52.3,0,0,1,.6-9.5,9.25,9.25,0,0,1,2-4.6q3.15-4.65,9.9-4.8a11.78,11.78,0,0,1,5.3,1.2,20.85,20.85,0,0,1,4.3,3.2V20.2h7.4V72.1h-7.4V68.2Zm-7.3-26.1a7.18,7.18,0,0,0-4,.9,5.1,5.1,0,0,0-2.2,2.6,13.57,13.57,0,0,0-.9,3.6c-.1,1.4-.2,2.8-.2,4.3s.1,2.8.2,4.1a11.16,11.16,0,0,0,.9,3.8,6.16,6.16,0,0,0,2.2,2.6,6.58,6.58,0,0,0,4,1,7.46,7.46,0,0,0,4.2-1.1,5.56,5.56,0,0,0,2.1-2.7,14.38,14.38,0,0,0,1-3.7c0-1.4.1-2.7.1-4s0-2.8-.1-4.1a13.64,13.64,0,0,0-1-3.6,5.56,5.56,0,0,0-2.1-2.7A7.47,7.47,0,0,0,438.5,42.1Zm43.8,26.1a12.35,12.35,0,0,1-9.5,4.3A13.13,13.13,0,0,1,463,68a10.6,10.6,0,0,1-2.1-4.4c-.5-1.7-.7-5-.7-9.9s.2-8.3.7-10.1a10.6,10.6,0,0,1,2.1-4.4,11,11,0,0,1,3.8-3.1,13.28,13.28,0,0,1,6-1.4,12.39,12.39,0,0,1,9.5,4.4V35.2h7.4V71.3c-.1,5.6-1.7,9.6-4.8,12.2a16.55,16.55,0,0,1-11.2,4,17,17,0,0,1-12.8-6.2l5.8-4.6a11.2,11.2,0,0,0,3.3,2.2,8.24,8.24,0,0,0,3.9,1.1,8.7,8.7,0,0,0,6.1-2.1,7.75,7.75,0,0,0,2.3-5.9V68.2ZM467.6,53.7a36.43,36.43,0,0,0,.3,5.8,6.45,6.45,0,0,0,1.2,2.8,6.16,6.16,0,0,0,2.3,1.8,6.09,6.09,0,0,0,3.6,1,5.89,5.89,0,0,0,3.6-1,6.86,6.86,0,0,0,2.2-1.8,6,6,0,0,0,1.2-2.8c.1-1.1.2-3,.2-5.8s-.1-4.9-.2-6a5.6,5.6,0,0,0-1.2-2.7,8.75,8.75,0,0,0-2.2-2,9.52,9.52,0,0,0-3.6-.9,6.63,6.63,0,0,0-3.6.9,7.7,7.7,0,0,0-2.3,2,5.6,5.6,0,0,0-1.2,2.7A39.53,39.53,0,0,0,467.6,53.7ZM528,56.5H505a8.81,8.81,0,0,0,2.6,6.8,8.45,8.45,0,0,0,6.3,2.3A11.19,11.19,0,0,0,522,62l5.4,4.6a17.75,17.75,0,0,1-13.3,6,18.84,18.84,0,0,1-5.7-.9,16,16,0,0,1-2.7-1.2,12.32,12.32,0,0,1-6.4-7.5,22.51,22.51,0,0,1-1.6-9.3,26,26,0,0,1,1.4-9.1,14.39,14.39,0,0,1,3.6-5.8,13.55,13.55,0,0,1,4.9-3.1,17.07,17.07,0,0,1,5.3-1,14.87,14.87,0,0,1,10.7,4.2c3,2.8,4.5,6.6,4.5,11.5v6.1Zm-23-6.2h15.6a9.6,9.6,0,0,0-2.3-6.5,8.25,8.25,0,0,0-11,0A9.8,9.8,0,0,0,505,50.3Z" transform="translate(-0.4 -0.4)" fill="#fff"/></svg>