<?xml version="1.0" encoding="utf-8"?>
<!-- Generator: Adobe Illustrator 22.0.1, SVG Export Plug-In . SVG Version: 6.00 Build 0)  -->
<svg version="1.1" id="Layer_1" xmlns="http://www.w3.org/2000/svg" xmlns:xlink="http://www.w3.org/1999/xlink" x="0px" y="0px"
	 viewBox="0 0 530 96" style="enable-background:new 0 0 530 96;" xml:space="preserve">
<style type="text/css">
	.st0{fill:#E8892D;}
	.st1{fill:#4A4A4A;}
</style>
<title>SB_Logo_With_Text Copy</title>
<desc>Created with Sketch.</desc>
<path id="Fill-26" class="st0" d="M109.8,58.2c5.1,0,9.3-4.5,9.3-10s-4.2-10-9.3-10c-2.5,0-4.8,0.9-6.4,2.5l-0.6,0.6
	c-5.1,3.8-11.5,5.8-18,5.8c-7,0-13.7-2.3-18.9-6.5c-1.7-1.6-3.9-2.4-6.1-2.4h-0.1c-2.5,0-4.7,0.9-6.4,2.5l-0.6,0.6
	c-5.1,3.8-11.5,5.8-18,5.8c-7,0-13.7-2.3-18.9-6.5c-1.7-1.6-3.9-2.4-6.1-2.4c-5.1,0-9.3,4.5-9.3,10s4.2,10,9.3,10
	c2.1,0,4.1-0.7,5.7-2.1l0.9-0.8l0,0c5.1-3.9,11.6-6.1,18.4-6.1c7,0,13.8,2.4,19.1,6.6c1.7,1.5,3.8,2.3,6,2.3h0.1
	c2.1,0,4.1-0.7,5.7-2.1l0.9-0.8l0,0c5.1-3.9,11.6-6.1,18.4-6.1c7,0,13.8,2.4,19.1,6.6C105.5,57.4,107.7,58.2,109.8,58.2 M84.7,19.3
	c-2.5,0-4.8,0.8-6.5,2.4L77,22.9c-5,3.5-11.1,5.4-17.4,5.4c-7,0-13.7-2.3-18.9-6.5c-1.7-1.6-3.9-2.4-6.1-2.4c-5.1,0-9.3,4.5-9.3,10
	s4.2,10,9.3,10c2.1,0,4.1-0.7,5.7-2.1l0.9-0.8l0,0c5.1-3.9,11.6-6.1,18.4-6.1c7,0,13.8,2.4,19.1,6.6c1.7,1.5,3.8,2.3,6,2.3
	c5.1,0,9.3-4.5,9.3-10S89.9,19.3,84.7,19.3 M34.6,77.1c2.1,0,4.1-0.7,5.7-2.1l0.9-0.8l0,0c5.1-3.9,11.6-6.1,18.4-6.1
	c7,0,13.8,2.4,19.1,6.6c1.7,1.5,3.8,2.3,6,2.3c5.1,0,9.3-4.5,9.3-10s-4.2-10-9.3-10c-2.5,0-4.8,0.9-6.4,2.5l-0.6,0.6
	c-5.1,3.8-11.5,5.8-18,5.8c-7,0-13.7-2.3-18.9-6.5c-1.7-1.6-3.9-2.4-6.1-2.4c-5.1,0-9.3,4.5-9.3,10C25.3,72.6,29.5,77.1,34.6,77.1
	 M59.7,95.9c5.1,0,9.3-4.5,9.3-10s-4.2-10-9.3-10s-9.3,4.5-9.3,10C50.4,91.5,54.5,95.9,59.7,95.9 M69,10.4c0,5.5-4.2,10-9.3,10
	s-9.3-4.5-9.3-10s4.2-10,9.3-10C64.8,0.5,69,4.9,69,10.4"/>
<path id="Sweetbridge" class="st1" d="M153.7,59.5l-5.2,5.9c5.5,4.7,12.1,7.1,19.8,7.1c11.9-0.1,18-5.2,18.2-15.1
	c0-3.7-1.2-6.9-3.5-9.7s-5.9-4.6-10.8-5.2c-2.5-0.3-4.4-0.6-5.8-0.8c-2.6-0.5-4.4-1.3-5.6-2.6c-1.2-1.2-1.7-2.6-1.7-4.1
	c0-2.5,0.9-4.4,2.6-5.6c1.6-1.2,3.6-1.8,6.1-1.8c4.7,0.1,9,1.4,12.9,4l4.4-6.5c-4.8-3.4-10.4-5.2-16.8-5.4c-5.4,0-9.5,1.4-12.4,4.2
	c-3,2.8-4.5,6.4-4.5,11c0,3.8,1.2,7,3.6,9.6c2.3,2.6,5.7,4.2,10.2,4.9c2.5,0.4,4.8,0.7,6.9,1c4.6,0.8,6.8,3.1,6.8,7
	c-0.1,4.7-3.5,7.1-10.3,7.2C162.7,64.6,157.8,62.9,153.7,59.5z M223.5,72.1h6.6l11.8-36.9H234l-7,25.9h-0.1l-8.4-25.9H213L204.6,61
	h-0.1l-7.1-25.9h-7.9L201.3,72h6.5l7.7-25.9h0.1L223.5,72.1z M275.5,56.5h-23c0,3,0.9,5.2,2.6,6.8c1.6,1.6,3.7,2.3,6.3,2.3
	c3,0,5.7-1.2,8.1-3.6l5.4,4.6c-3.8,4-8.2,6-13.3,6c-1.9,0-3.8-0.3-5.7-0.9c-0.9-0.3-1.8-0.7-2.7-1.2s-1.8-1-2.6-1.7
	c-1.6-1.4-2.8-3.3-3.8-5.8c-1.1-2.4-1.6-5.5-1.6-9.3c0-3.7,0.5-6.7,1.4-9.1c0.9-2.5,2.1-4.4,3.6-5.8c1.5-1.4,3.1-2.5,4.9-3.1
	s3.6-1,5.3-1c4.2,0,7.8,1.4,10.7,4.2c3,2.8,4.5,6.6,4.5,11.5L275.5,56.5L275.5,56.5z M252.4,50.3H268c-0.1-2.9-0.9-5-2.3-6.5
	c-1.4-1.4-3.3-2.1-5.5-2.1c-2.2,0-4.1,0.7-5.5,2.1C253.4,45.3,252.6,47.5,252.4,50.3z M311.9,56.5h-23c0,3,0.9,5.2,2.6,6.8
	c1.6,1.6,3.7,2.3,6.3,2.3c3,0,5.7-1.2,8.1-3.6l5.4,4.6c-3.8,4-8.2,6-13.3,6c-1.9,0-3.8-0.3-5.7-0.9c-0.9-0.3-1.8-0.7-2.7-1.2
	c-0.9-0.5-1.8-1-2.6-1.7c-1.6-1.4-2.8-3.3-3.8-5.8c-1.1-2.4-1.6-5.5-1.6-9.3c0-3.7,0.5-6.7,1.4-9.1c0.9-2.5,2.1-4.4,3.6-5.8
	c1.5-1.4,3.1-2.5,4.9-3.1s3.6-1,5.3-1c4.2,0,7.8,1.4,10.7,4.2c3,2.8,4.5,6.6,4.5,11.5L311.9,56.5L311.9,56.5z M288.9,50.3h15.6
	c-0.1-2.9-0.9-5-2.3-6.5c-1.4-1.4-3.3-2.1-5.5-2.1s-4.1,0.7-5.5,2.1C289.8,45.3,289,47.5,288.9,50.3z M320.1,35.2h-3.7v5.7h3.7V63
	c0,2.9,0.9,5.1,2.6,6.7s3.8,2.4,6.4,2.4h3.9v-7h-2.8c-1.8,0-2.7-0.9-2.6-2.7V40.8h5.4v-5.7h-5.4V23.9h-7.4v11.3H320.1z M340,72.1
	V20.2h7.4v18.9c1.4-1.3,2.8-2.4,4.4-3.2c1.5-0.8,3.2-1.2,5.1-1.2c4.5,0.1,7.8,1.7,9.9,4.8c1,1.2,1.7,2.7,2.1,4.6
	c0.4,1.9,0.5,5,0.5,9.5c0,4.4-0.2,7.5-0.5,9.4c-0.4,2-1.1,3.6-2.1,4.7c-1,1.4-2.4,2.6-4,3.4c-1.6,0.9-3.6,1.3-5.9,1.4
	c-3.9-0.1-7.1-1.5-9.5-4.3v3.9C347.4,72.1,340,72.1,340,72.1z M354.7,42.1c-1.7,0-3,0.3-4,1s-1.8,1.6-2.2,2.7
	c-0.5,1.1-0.7,2.3-0.9,3.6c-0.1,1.3-0.2,2.7-0.2,4.1c0,1.3,0.1,2.6,0.2,4s0.4,2.6,0.9,3.7c0.5,1.1,1.2,2,2.2,2.7s2.3,1.1,4,1.1
	c1.8,0,3.1-0.3,4.2-1c1-0.7,1.7-1.6,2.2-2.6c0.5-1.1,0.8-2.4,1-3.8c0-1.3,0.1-2.7,0.1-4.1c0-1.5,0-2.9-0.1-4.3
	c-0.2-1.3-0.5-2.5-1-3.6c-0.4-1.1-1.2-2-2.2-2.6C357.8,42.4,356.5,42.1,354.7,42.1z M377.8,72.1h7.4V49.9c0-2.7,0.8-4.7,2.3-5.9
	c1.4-1.2,3-1.9,4.9-1.9c1.7,0,3.3,0.6,4.9,1.9l5.4-6.4c-2.2-1.9-4.8-2.8-7.8-2.8c-4,0-7.2,1.5-9.6,4.4h-0.1v-3.9h-7.4L377.8,72.1
	L377.8,72.1z M406.4,72.1h7.4V35.2h-7.4V72.1z M406.4,27.7h7.4v-7.4h-7.4V27.7z M445.8,68.2c-2.4,2.8-5.6,4.2-9.6,4.3
	c-2.2,0-4.1-0.5-5.7-1.4c-1.7-0.9-3-2-4.2-3.4c-1-1.2-1.7-2.7-2-4.7c-0.4-1.9-0.6-5-0.6-9.4s0.2-7.6,0.6-9.5c0.3-1.9,1-3.4,2-4.6
	c2.1-3.1,5.4-4.7,9.9-4.8c1.9,0,3.7,0.4,5.3,1.2c1.5,0.8,2.9,1.9,4.3,3.2V20.2h7.4v51.9h-7.4L445.8,68.2L445.8,68.2z M438.5,42.1
	c-1.8,0-3.1,0.3-4,0.9c-1,0.6-1.8,1.5-2.2,2.6c-0.5,1.1-0.7,2.3-0.9,3.6c-0.1,1.4-0.2,2.8-0.2,4.3c0,1.4,0.1,2.8,0.2,4.1
	c0.1,1.4,0.4,2.7,0.9,3.8s1.2,1.9,2.2,2.6c0.9,0.7,2.3,1,4,1c1.8,0,3.1-0.4,4.2-1.1c1-0.7,1.7-1.6,2.1-2.7c0.5-1.1,0.8-2.4,1-3.7
	c0-1.4,0.1-2.7,0.1-4c0-1.4,0-2.8-0.1-4.1c-0.2-1.3-0.5-2.5-1-3.6c-0.4-1.1-1.1-2-2.1-2.7S440.2,42.1,438.5,42.1z M482.3,68.2
	c-2.4,2.8-5.6,4.2-9.5,4.3c-2.4,0-4.4-0.6-6-1.5c-1.7-0.9-2.9-1.9-3.8-3c-1-1.2-1.7-2.7-2.1-4.4c-0.5-1.7-0.7-5-0.7-9.9
	c0-5,0.2-8.3,0.7-10.1c0.4-1.7,1.1-3.2,2.1-4.4c0.9-1.2,2.1-2.2,3.8-3.1c1.6-0.9,3.6-1.3,6-1.4c3.7,0,6.9,1.5,9.5,4.4v-3.9h7.4v36.1
	c-0.1,5.6-1.7,9.6-4.8,12.2c-3.1,2.7-6.9,4-11.2,4c-5-0.1-9.3-2.2-12.8-6.2l5.8-4.6c0.9,0.9,2,1.6,3.3,2.2c1.3,0.7,2.6,1.1,3.9,1.1
	c2.5,0,4.6-0.7,6.1-2.1s2.3-3.4,2.3-5.9L482.3,68.2L482.3,68.2z M467.6,53.7c0,2.8,0.1,4.8,0.3,5.8c0.2,1.1,0.6,2,1.2,2.8
	c0.5,0.7,1.3,1.3,2.3,1.8c1,0.7,2.2,1,3.6,1s2.7-0.3,3.6-1c1-0.5,1.7-1.2,2.2-1.8c0.6-0.7,1-1.7,1.2-2.8c0.1-1.1,0.2-3,0.2-5.8
	c0-2.9-0.1-4.9-0.2-6c-0.2-1.1-0.6-2-1.2-2.7c-0.5-0.7-1.2-1.3-2.2-2c-1-0.5-2.2-0.8-3.6-0.9c-1.4,0-2.7,0.3-3.6,0.9
	c-1,0.6-1.8,1.3-2.3,2c-0.6,0.7-1,1.6-1.2,2.7C467.7,48.8,467.6,50.8,467.6,53.7z M528,56.5h-23c0,3,0.9,5.2,2.6,6.8
	c1.6,1.6,3.7,2.3,6.3,2.3c3,0,5.7-1.2,8.1-3.6l5.4,4.6c-3.8,4-8.2,6-13.3,6c-1.9,0-3.8-0.3-5.7-0.9c-0.9-0.3-1.8-0.7-2.7-1.2
	c-0.9-0.5-1.8-1-2.6-1.7c-1.6-1.4-2.8-3.3-3.8-5.8c-1.1-2.4-1.6-5.5-1.6-9.3c0-3.7,0.5-6.7,1.4-9.1c0.9-2.5,2.1-4.4,3.6-5.8
	c1.5-1.4,3.1-2.5,4.9-3.1s3.6-1,5.3-1c4.2,0,7.8,1.4,10.7,4.2c3,2.8,4.5,6.6,4.5,11.5L528,56.5L528,56.5z M505,50.3h15.6
	c-0.1-2.9-0.9-5-2.3-6.5c-1.4-1.4-3.3-2.1-5.5-2.1c-2.2,0-4.1,0.7-5.5,2.1C505.9,45.3,505.1,47.5,505,50.3z"/>
</svg>
